:FULLY-SPECIFIED
:FORCE-ALL-JOINTS-BE-3DOF
:DEGREES
2446
root 2.47565 15.1993 -23.7252 944.322 81.8505 -132.099
lfemur -32.1476 20.2576 -13.0439
ltibia 70.4568 0 0
lfoot -24.5929 17.5478 -0.0040101
ltoes -32.3432 0 0
rfemur -46.0721 -22.2954 10.9039
rtibia 52.1991 -0 0
rfoot 15.7271 -0.63624 0.68109
rtoes 10.3332 -0 0
lowerback 18.2461 0.80224 -3.08751
upperback 0.11478 0.941217 4.05904
thorax -10.281 0.775769 5.98484
lowerneck 3.83196 -13.0949 -14.8118
upperneck 1.15554 -18.261 13.4513
head 2.32821 -9.22523 5.798
lclavicle 5.79444e-15 -2.44734e-14 -1.45598e-31
lhumerus -15.9787 -66.6317 103.221
lradius 96.4239 -0 0
lwrist 52.4701 0 0
lhand -3.97223 44.144 0.0310298
lfingers 7.12502 -0 0
lthumb 20.2641 75.135 0.00392911
rclavicle -1.56787e-14 8.04585e-15 -7.43739e-31
rhumerus 24.0218 26.2743 -62.1053
rradius 111.145 -0 0
rwrist 17.2689 0 0
rhand -22.3197 -43.4754 0.215696
rfingers 7.12502 -0 0
rthumb 3.68638 -73.8628 0.235857
2447
root 2.55258 15.1746 -23.726 941.721 81.8461 -134.524
lfemur -31.5342 20.4899 -12.8907
ltibia 70.4963 -0 0
lfoot -25.1722 17.5622 -0.0037883
ltoes -32.7691 0 0
rfemur -46.0843 -22.3201 10.8912
rtibia 49.85 -0 0
rfoot 17.8148 0.0299108 0.589249
rtoes 10.3818 -0 0
lowerback 18.1739 0.671658 -3.41623
upperback 0.0188028 0.68686 3.99
thorax -10.3177 0.670219 6.16918
lowerneck 3.7539 -13.1023 -14.8188
upperneck 1.66533 -18.2891 13.26
head 2.47749 -9.23511 5.71705
lclavicle 6.34382e-15 -2.39191e-14 -2.13208e-31
lhumerus -17.258 -66.1594 104.001
lradius 97.548 -0 0
lwrist 54.8781 0 0
lhand -3.47277 44.2544 0.0146597
lfingers 7.12502 -0 0
lthumb 20.3737 -644.838 0
rclavicle -1.22175e-14 8.5175e-15 -5.73679e-31
rhumerus 23.4517 25.4382 -62.492
rradius 111.299 -0 0
rwrist 21.2117 0 0
rhand -23.8094 -43.7304 0.236423
rfingers 7.12502 -0 0
rthumb 2.40172 -74.0992 0.252248
2448
root 2.62795 15.1577 -23.7255 940.616 81.6626 -135.406
lfemur -30.9764 20.6993 -12.7492
ltibia 70.6112 -0 0
lfoot -25.7318 17.5762 -0.00343512
ltoes -33.2129 0 0
rfemur -46.1197 -22.3918 10.8544
rtibia 47.8118 -0 0
rfoot 19.7478 0.643649 0.482573
rtoes 10.4597 -0 0
lowerback 18.1072 0.542451 -3.41659
upperback -0.0650043 0.516758 4.00332
thorax -10.3509 0.591805 6.23109
lowerneck 3.74396 -13.1214 -14.9944
upperneck 2.13706 -18.3463 13.125
head 2.62968 -9.26348 5.67862
lclavicle 6.98414e-15 -2.32731e-14 -2.85302e-31
lhumerus -18.7868 -65.5657 104.911
lradius 98.6883 -0 0
lwrist 57.3337 0 0
lhand -3.15803 44.3238 0.00384969
lfingers 7.12502 -0 0
lthumb 20.4275 75.1472 -0.00185927
rclavicle -9.20332e-15 8.92823e-15 -4.02374e-31
rhumerus 22.7045 24.314 -62.9911
rradius 111.449 -0 0
rwrist 24.9114 0 0
rhand -25.3497 -43.9946 0.250875
rfingers 7.12502 -0 0
rthumb 1.08507 -74.3419 0.263543
2449
root 2.70131 15.1312 -23.7268 937.995 81.7618 -137.957
lfemur -30.4823 20.8833 -12.6222
ltibia 70.7962 -0 0
lfoot -26.2622 17.5894 -0.00297447
ltoes -33.6697 0 0
rfemur -46.1763 -22.5068 10.7954
rtibia 46.1363 -0 0
rfoot 21.4876 1.19305 0.36883
rtoes 10.5645 -0 0
lowerback 17.9557 0.449838 -3.74183
upperback -0.177033 0.309646 3.89609
thorax -10.3636 0.506548 6.3557
lowerneck 3.61736 -13.1423 -15.0827
upperneck 2.65235 -18.3883 12.9537
head 2.8003 -9.28005 5.6093
lclavicle 7.70402e-15 -2.25467e-14 -3.57732e-31
lhumerus -20.5101 -64.8563 105.906
lradius 99.8342 -0 0
lwrist 59.8051 0 0
lhand -3.04855 404.348 0
lfingers 7.12502 -0 0
lthumb 20.5837 75.1044 -0.00717702
rclavicle -6.71746e-15 9.26696e-15 -2.44837e-31
rhumerus 21.8117 22.9278 -63.5755
rradius 111.595 -0 0
rwrist 28.3276 0 0
rhand -26.9205 -44.2642 0.258293
rfingers 7.12502 -0 0
rthumb -0.250777 -74.5882 0.269301
2450
root 2.77555 15.106 -23.7244 936.408 81.6851 -139.359
lfemur -30.0602 21.0393 -12.5125
ltibia 71.0458 -0 0
lfoot -26.7535 17.6017 -0.00243843
ltoes -34.1341 0 0
rfemur -46.2523 -22.6613 10.7163
rtibia 44.8753 -0 0
rfoot 22.9962 1.66675 0.256669
rtoes 10.6939 -0 0
lowerback 17.8862 0.382994 -3.75167
upperback -0.239118 0.211761 3.84071
thorax -10.3794 0.45922 6.32541
lowerneck 3.46457 -13.2494 -15.2656
upperneck 3.1468 -18.5445 12.7924
head 2.9948 -9.35394 5.5428
lclavicle 8.49211e-15 -2.17516e-14 -4.2656e-31
lhumerus -22.3756 -64.0376 106.943
lradius 100.975 -0 0
lwrist 62.2607 0 0
lhand -2.98381 44.3494 0.000155156
lfingers 7.12502 -0 0
lthumb 20.8344 75.0356 -0.0154676
rclavicle -4.84121e-15 9.52263e-15 -1.16201e-31
rhumerus 20.8036 21.3058 -64.2186
rradius 111.735 -0 0
rwrist 31.4197 0 0
rhand -28.5013 -44.5358 0.258293
rfingers 7.12502 -0 0
rthumb -1.59302 -74.8358 0.269301
